name Walk1.mot
datacolumns 19
datarows 25
range 2.28000000 2.40000000
endheader

                time	   L_ground_force_vx	   L_ground_force_vy	   L_ground_force_vz	   L_ground_force_px	   L_ground_force_py	   L_ground_force_pz	   R_ground_force_vx	   R_ground_force_vy	   R_ground_force_vz	   R_ground_force_px	   R_ground_force_py	   R_ground_force_pz	   L_ground_torque_x	   L_ground_torque_y	   L_ground_torque_z	   R_ground_torque_x	   R_ground_torque_y	   R_ground_torque_z	
          2.28000000	         10.14403196	         32.25372210	         -1.84932440	          0.28838891	          0.00000000	          0.15102159	          0.00000000	          0.00000000	          0.00000000	         -0.00000000	          0.00000000	          0.00000000	          0.00000000	         -0.01280591	          0.00000000	          0.00000000	          0.00000000	          0.00000000	
          2.28500000	          4.16215041	         17.21299664	         -1.25279907	          0.23257113	          0.00000000	          0.12391777	          0.00000000	          0.00000000	          0.00000000	         -0.00000000	          0.00000000	          0.00000000	          0.00000000	         -0.02586772	          0.00000000	          0.00000000	          0.00000000	          0.00000000	
          2.29000000	         -0.00634110	          6.21255250	         -0.77069474	          0.17853136	          0.00000000	          0.09683414	          0.00000000	          0.00000000	          0.00000000	         -0.00000000	          0.00000000	          0.00000000	          0.00000000	         -0.03230682	          0.00000000	          0.00000000	          0.00000000	          0.00000000	
          2.29500000	         -2.67901651	         -1.33314966	         -0.40057733	          0.12975724	          0.00000000	          0.07180767	          0.00000000	          0.00000000	          0.00000000	         -0.00000000	          0.00000000	          0.00000000	          0.00000000	         -0.03388115	          0.00000000	          0.00000000	          0.00000000	          0.00000000	
          2.30000000	         -4.18107367	         -6.06662627	         -0.13154739	          0.08821711	          0.00000000	          0.05007956	         -0.00000000	         -0.00000000	          0.00000000	         -0.00000000	          0.00000000	          0.00000000	          0.00000000	         -0.03221115	          0.00000000	          0.00000000	          0.00000000	          0.00000000	
          2.30500000	         -4.81364145	         -8.62231633	          0.05138011	          0.05460132	          0.00000000	          0.03218506	         -0.00000000	         -0.00000000	          0.00000000	         -0.00000000	          0.00000000	          0.00000000	          0.00000000	         -0.02859270	          0.00000000	          0.00000000	          0.00000000	          0.00000000	
          2.31000000	         -4.83859408	         -9.57930989	          0.16462443	          0.02872587	          0.00000000	          0.01816421	         -0.00000000	         -0.00000000	         -0.00000000	         -0.00000000	          0.00000000	          0.00000000	          0.00000000	         -0.02401092	          0.00000000	          0.00000000	          0.00000000	          0.00000000	
          2.31500000	         -4.47192143	         -9.43540374	          0.22422602	          0.00986057	          0.00000000	          0.00773634	         -0.00000000	         -0.00000000	         -0.00000000	         -0.00000000	          0.00000000	          0.00000000	          0.00000000	         -0.01917374	          0.00000000	          0.00000000	         -0.00000000	          0.00000000	
          2.32000000	         -3.88310645	         -8.59689316	          0.24471379	         -0.00301723	          0.00000000	          0.00043730	         -0.00000000	         -0.00000000	         -0.00000000	          0.00000000	          0.00000000	         -0.00000000	          0.00000000	         -0.01455534	          0.00000000	          0.00000000	         -0.00000000	          0.00000000	
          2.32500000	         -3.19840404	         -7.37926227	          0.23849830	         -0.01103689	          0.00000000	         -0.00427802	         -0.00000000	         -0.00000000	         -0.00000000	          0.00000000	          0.00000000	         -0.00000000	          0.00000000	         -0.01044250	          0.00000000	          0.00000000	         -0.00000000	          0.00000000	
          2.33000000	         -2.50636257	         -6.01480874	          0.21565010	         -0.01530686	          0.00000000	         -0.00696352	         -0.00000000	         -0.00000000	         -0.00000000	          0.00000000	          0.00000000	         -0.00000000	          0.00000000	         -0.00697914	          0.00000000	          0.00000000	         -0.00000000	          0.00000000	
          2.33500000	         -1.86434680	         -4.66411249	          0.18394267	         -0.01683452	          0.00000000	         -0.00813495	         -0.00000000	         -0.00000000	         -0.00000000	          0.00000000	          0.00000000	         -0.00000000	          0.00000000	         -0.00420618	          0.00000000	          0.00000000	         -0.00000000	          0.00000000	
          2.34000000	         -1.30518723	         -3.42906224	          0.14906167	         -0.01648277	          0.00000000	         -0.00824279	         -0.00000000	         -0.00000000	         -0.00000000	          0.00000000	          0.00000000	         -0.00000000	          0.00000000	         -0.00209528	          0.00000000	          0.00000000	         -0.00000000	          0.00000000	
          2.34500000	         -0.84338451	         -2.36585108	          0.11490419	         -0.01495361	          0.00000000	         -0.00766004	         -0.00000000	         -0.00000000	         -0.00000000	          0.00000000	          0.00000000	         -0.00000000	          0.00000000	         -0.00057589	          0.00000000	          0.00000000	         -0.00000000	          0.00000000	
          2.35000000	         -0.48053785	         -1.49692415	          0.08391212	         -0.01279034	          0.00000000	         -0.00668052	         -0.00000000	         -0.00000000	         -0.00000000	          0.00000000	          0.00000000	         -0.00000000	          0.00000000	          0.00044401	          0.00000000	          0.00000000	         -0.00000000	          0.00000000	
          2.35500000	         -0.20984658	         -0.82130953	          0.05740108	         -0.01039152	          0.00000000	         -0.00552402	         -0.00000000	         -0.00000000	         -0.00000000	          0.00000000	          0.00000000	         -0.00000000	          0.00000000	          0.00106293	          0.00000000	          0.00000000	         -0.00000000	          0.00000000	
          2.36000000	         -0.01966119	         -0.32309532	          0.03586033	         -0.00803136	          0.00000000	         -0.00434550	         -0.00000000	         -0.00000000	         -0.00000000	          0.00000000	          0.00000000	         -0.00000000	          0.00000000	          0.00137578	          0.00000000	          0.00000000	         -0.00000000	          0.00000000	
          2.36500000	          0.10385598	          0.02195274	          0.01921054	         -0.00588265	          0.00000000	         -0.00324606	         -0.00000000	         -0.00000000	         -0.00000000	          0.00000000	          0.00000000	         -0.00000000	          0.00000000	          0.00146759	          0.00000000	          0.00000000	         -0.00000000	          0.00000000	
          2.37000000	          0.17485140	          0.24148918	          0.00701404	         -0.00403947	          0.00000000	         -0.00228428	         -0.00000000	          0.00000000	         -0.00000000	          0.00000000	          0.00000000	         -0.00000000	          0.00000000	          0.00141040	          0.00000000	          0.00000000	         -0.00000000	          0.00000000	
          2.37500000	          0.20655075	          0.36317477	         -0.00136207	         -0.00253801	          0.00000000	         -0.00148686	          0.00000000	          0.00000000	         -0.00000000	          0.00000000	          0.00000000	         -0.00000000	          0.00000000	          0.00126217	          0.00000000	          0.00000000	         -0.00000000	          0.00000000	
          2.38000000	          0.21054327	          0.41248665	         -0.00662579	         -0.00137442	          0.00000000	         -0.00085789	          0.00000000	          0.00000000	          0.00000000	          0.00000000	          0.00000000	         -0.00000000	          0.00000000	          0.00106730	          0.00000000	          0.00000000	         -0.00000000	          0.00000000	
          2.38500000	          0.19645216	          0.41148670	         -0.00947728	         -0.00051954	          0.00000000	         -0.00038670	          0.00000000	          0.00000000	          0.00000000	          0.00000000	          0.00000000	         -0.00000000	          0.00000000	          0.00085792	          0.00000000	          0.00000000	          0.00000000	          0.00000000	
          2.39000000	          0.17187882	          0.37830182	         -0.01055635	          0.00006977	          0.00000000	         -0.00005395	          0.00000000	          0.00000000	          0.00000000	         -0.00000000	          0.00000000	          0.00000000	          0.00000000	          0.00065580	          0.00000000	          0.00000000	          0.00000000	          0.00000000	
          2.39500000	          0.14252687	          0.32710191	         -0.01041346	          0.00044217	          0.00000000	          0.00016370	          0.00000000	          0.00000000	          0.00000000	         -0.00000000	          0.00000000	          0.00000000	          0.00000000	          0.00047432	          0.00000000	          0.00000000	          0.00000000	          0.00000000	
          2.40000000	          0.11243189	          0.26839859	         -0.00949825	          0.00064601	          0.00000000	          0.00029033	          0.00000000	          0.00000000	          0.00000000	         -0.00000000	          0.00000000	          0.00000000	          0.00000000	          0.00032042	          0.00000000	          0.00000000	          0.00000000	          0.00000000	
